<svg xmlns="http://www.w3.org/2000/svg" viewBox="0 0 32 32" fill="none">
  <defs>
    <linearGradient id="grad" x1="0%" y1="0%" x2="100%" y2="100%">
      <stop offset="0%" style="stop-color:#075e54;stop-opacity:1" />
      <stop offset="100%" style="stop-color:#25d366;stop-opacity:1" />
    </linearGradient>
  </defs>
  <rect width="32" height="32" rx="6" fill="url(#grad)"/>
  <path d="M16 8c-4.418 0-8 3.582-8 8v4c0 1.473 1.194 2.667 2.667 2.667h1.333v-2.667h-1.333V16c0-2.946 2.388-5.333 5.333-5.333s5.333 2.387 5.333 5.333v4h-1.333v2.667h1.333c1.473 0 2.667-1.194 2.667-2.667V16c0-4.418-3.582-8-8-8z" fill="white"/>
  <rect x="12" y="17.33" width="8" height="5.33" rx="1.33" fill="white"/>
  <circle cx="14" cy="20" r="0.5" fill="#075e54"/>
  <circle cx="16" cy="20" r="0.5" fill="#075e54"/>
  <circle cx="18" cy="20" r="0.5" fill="#075e54"/>
</svg>
